<svg xmlns="http://www.w3.org/2000/svg" viewBox="0 0 512 512"><path d="M430.255 275.314L269.13 436.454c-2.5 2.5-5.9 3.913-9.44 3.913H87.124c-11.893 0-17.854-14.377-9.44-22.776 49.278-49.325 161.513-161.606 161.513-161.606S126.947 143.734 77.684 94.409c-8.415-8.399-2.453-22.776 9.44-22.776h172.567c3.54 0 6.94 1.413 9.44 3.912l73.126 73.126 87.999 87.984c10.665 10.682 10.665 27.977-.001 38.659z" fill="#ffce00"/><path d="M329.339 275.314l-161.125 161.14c-2.5 2.5-5.9 3.913-9.44 3.913h-71.65c-11.893 0-17.854-14.377-9.44-22.776 49.278-49.325 161.513-161.606 161.513-161.606S126.947 143.734 77.684 94.409c-8.415-8.399-2.453-22.776 9.44-22.776h71.651c3.54 0 6.94 1.413 9.44 3.912L329.34 236.654c10.665 10.683 10.665 27.978-.001 38.66z" fill="#ffa81e"/><path d="M329.339 275.314l-161.125 161.14c-2.5 2.5-5.9 3.913-9.44 3.913h-41.981c3.54 0 6.94-1.413 9.44-3.913l165.783-165.798c10.666-10.682 10.666-18.662 0-29.343L126.233 75.546c-2.5-2.5-5.9-3.912-9.44-3.912h41.981c3.54 0 6.94 1.413 9.44 3.912l161.125 161.109c10.666 10.682 10.666 27.977 0 38.659z" fill="#f90"/><path d="M494.01 488.583a7.5 7.5 0 0 0-7.5 7.5v8.417a7.5 7.5 0 0 0 15 0v-8.417a7.5 7.5 0 0 0-7.5-7.5zm-44.272 0a7.5 7.5 0 0 0-7.5 7.5v8.417a7.5 7.5 0 0 0 15 0v-8.417a7.5 7.5 0 0 0-7.5-7.5zm-44.273 0a7.5 7.5 0 0 0-7.5 7.5v8.417a7.5 7.5 0 0 0 15 0v-8.417a7.5 7.5 0 0 0-7.5-7.5zM106.535 23.417a7.5 7.5 0 0 0 7.5-7.5V7.5a7.5 7.5 0 0 0-15 0v8.417a7.5 7.5 0 0 0 7.5 7.5zm-36.773-7.5V7.5a7.5 7.5 0 0 0-15 0v8.417a7.5 7.5 0 0 0 15 0zM17.99 0a7.5 7.5 0 0 0-7.5 7.5v8.417a7.5 7.5 0 0 0 15 0V7.5a7.5 7.5 0 0 0-7.5-7.5zm417.568 231.352l-87.999-87.983-73.125-73.125c-3.882-3.883-9.256-6.11-14.743-6.11H87.124c-8.599 0-15.983 4.936-19.27 12.881-3.283 7.937-1.547 16.636 4.523 22.695 42.589 42.644 133.354 133.416 156.214 156.276C205.788 278.8 115.254 369.373 72.386 412.283c-6.079 6.067-7.815 14.767-4.532 22.703 3.287 7.945 10.67 12.881 19.27 12.881h172.567c5.487 0 10.861-2.227 14.743-6.109l161.125-161.14.003-.004c13.561-13.581 13.561-35.678-.004-49.262zm-10.61 38.663l.003-.004-161.124 161.14a5.892 5.892 0 0 1-4.136 1.715h-76.924c48.665-46.937 97.766-96.692 153.615-155.642 11.307-11.398 11.418-31.614.224-44.208a7.61 7.61 0 0 0-.302-.32c-30.349-30.349-59.015-59.015-88.063-87.738a7.497 7.497 0 0 0-10.606.06 7.498 7.498 0 0 0 .06 10.606c28.963 28.639 57.56 57.235 87.83 87.505 5.118 5.925 6.316 17.423.173 23.566a9.71 9.71 0 0 0-.142.145c-59.289 62.583-110.934 114.758-162.53 164.197a7.505 7.505 0 0 0-1.397 1.828H87.124c-3.631 0-5.058-2.767-5.409-3.615-.349-.845-1.291-3.799 1.275-6.36a1252386.33 1252386.33 0 0 1 161.512-161.605 7.499 7.499 0 0 0-.001-10.605c-1.123-1.123-112.812-112.813-161.518-161.58-2.558-2.554-1.617-5.508-1.268-6.353.351-.848 1.777-3.615 5.409-3.615h74.509a7.454 7.454 0 0 0 1.501 1.93c7.913 7.285 15.612 15.349 23.057 23.148 8.146 8.533 16.57 17.356 25.369 25.267a7.47 7.47 0 0 0 5.012 1.923 7.479 7.479 0 0 0 5.58-2.486 7.498 7.498 0 0 0-.563-10.591c-8.373-7.528-16.229-15.757-24.547-24.47-4.654-4.874-9.405-9.849-14.285-14.72h76.935c1.538 0 3.046.625 4.136 1.716l73.126 73.126 87.995 87.979c7.724 7.737 7.724 20.324-.001 28.061z"/></svg>