<svg xmlns="http://www.w3.org/2000/svg" viewBox="0 0 512 512"><path d="M307.313 8.018H204.686c-94.465 0-171.044 76.579-171.044 171.044v76.97c0 70.137 42.22 130.402 102.627 156.799v91.216l76.97-76.97h94.074c94.465 0 171.044-76.58 171.044-171.044v-76.97c0-94.467-76.578-171.045-171.044-171.045z" fill="#665cac"/><path d="M170.477 469.838v-57.007C110.071 386.436 67.85 326.169 67.85 256.032v-76.97c0-94.466 76.58-171.044 171.044-171.044h-34.209c-94.465 0-171.044 76.579-171.044 171.044v76.97c0 70.137 42.22 130.402 102.627 156.799v91.216l34.209-34.209z" fill="#523494"/><path d="M369.018 278.13l-60.474-12.095-28.689 28.69c-48.535-20.568-74.192-46.225-96.758-96.758l28.691-28.691-12.095-60.474-41.653-7.69a51.058 51.058 0 0 0-24.868 13.737c-13.802 13.802-15.719 32.972-12.885 50.989 6.411 40.755 26.253 95.276 61.016 130.175.084.084.165.171.249.255.084.084.171.165.255.249 34.899 34.763 89.421 54.604 130.175 61.016 18.017 2.834 37.187.917 50.989-12.885a51.058 51.058 0 0 0 13.737-24.868l-7.69-41.65z" fill="#fff"/><path d="M328.109 341.408c-40.755-6.412-95.276-26.253-130.175-61.016-.084-.084-.171-.165-.256-.249-.084-.084-.165-.171-.249-.256-34.763-34.899-54.604-89.421-61.016-130.175-2.272-14.441-1.484-29.62 6.022-42.184a51.2 51.2 0 0 0-9.264 7.322c-13.802 13.802-15.719 32.972-12.885 50.989 6.411 40.755 26.253 95.276 61.016 130.175.084.084.165.171.249.254.084.084.171.165.255.249 34.899 34.763 89.421 54.604 130.175 61.016 18.017 2.834 37.187.917 50.989-12.885a51.2 51.2 0 0 0 7.322-9.264c-12.564 7.508-27.742 8.296-42.183 6.024z" fill="#e5e5e5"/><path d="M435.192 53.723c-3.099-3.162-8.177-3.215-11.337-.112a8.014 8.014 0 0 0-.112 11.337c30.048 30.654 46.597 71.181 46.597 114.114v76.97c0 89.893-73.133 163.027-163.027 163.027h-94.074a8.025 8.025 0 0 0-5.67 2.348l-63.282 63.283v-71.86a8.018 8.018 0 0 0-4.807-7.346c-59.424-25.966-97.82-84.629-97.82-149.452v-76.97c0-89.893 73.133-163.027 163.027-163.027h102.627c32.038 0 63.044 9.286 89.665 26.85a8.018 8.018 0 1 0 8.832-13.384C376.558 10.202 342.5 0 307.313 0H204.686C105.952 0 25.624 80.328 25.624 179.062v76.97c0 69.431 40.108 132.43 102.627 161.96v86.055c0 6.977 8.735 10.619 13.688 5.67l74.621-74.622h90.754c98.734 0 179.062-80.328 179.062-179.062v-76.97c-.001-47.157-18.178-91.671-51.184-125.34z"/><path d="M313.228 349.615c-38.326-6.03-91.49-24.637-125.752-58.764l-.494-.493c-15.761-15.824-29.81-37.65-40.625-63.119a8.018 8.018 0 1 0-14.76 6.268c11.609 27.334 26.833 50.906 44.055 68.2l.496.493c36.992 36.846 93.778 56.835 134.587 63.256 5.122.805 10.054 1.206 14.783 1.206 17.591 0 32.319-5.541 43.122-16.342a59.164 59.164 0 0 0 15.885-28.761 7.993 7.993 0 0 0 .066-3.231l-7.69-41.653a8.017 8.017 0 0 0-6.312-6.407l-60.473-12.094a8.024 8.024 0 0 0-7.242 2.193l-24.829 24.83c-41.849-18.68-64.974-41.852-85.344-85.494l24.754-24.753a8.026 8.026 0 0 0 2.193-7.242l-12.094-60.474a8.017 8.017 0 0 0-6.407-6.312l-41.653-7.688a7.975 7.975 0 0 0-3.231.066 59.156 59.156 0 0 0-28.762 15.886c-13.704 13.705-18.939 33.729-15.135 57.904 1.732 11.006 4.306 22.409 7.651 33.892 1.24 4.253 5.697 6.689 9.941 5.456a8.019 8.019 0 0 0 5.456-9.941c-3.156-10.832-5.58-21.565-7.206-31.901-3.016-19.172.561-34 10.634-44.073a43.14 43.14 0 0 1 19.438-11.209l34.616 6.391 10.188 50.94-25.656 25.655a8.02 8.02 0 0 0-1.652 8.938c23.323 52.231 50.684 79.571 100.95 100.87a8.017 8.017 0 0 0 8.798-1.713l25.654-25.656 50.939 10.188 6.392 34.616a43.166 43.166 0 0 1-11.208 19.438c-10.072 10.074-24.903 13.652-44.073 10.634zm-40.124-204.227c-4.429 0-8.018 3.589-8.018 8.018s3.589 8.018 8.018 8.018c19.158 0 34.743 15.585 34.743 34.743 0 4.369 3.649 8.018 8.018 8.018 4.369 0 8.018-3.649 8.018-8.018 0-27.999-22.78-50.779-50.779-50.779z"/><path d="M348.724 212.689c4.343.469 8.369-2.739 8.849-7.09.343-3.114.517-6.289.517-9.433 0-46.863-38.125-84.988-84.988-84.988-3.144 0-6.318.174-9.432.517a8.02 8.02 0 0 0-7.09 8.849c.486 4.4 4.445 7.563 8.849 7.09a70.084 70.084 0 0 1 7.672-.422c38.02 0 68.952 30.932 68.952 68.952 0 2.56-.142 5.141-.422 7.673-.482 4.404 2.692 8.366 7.093 8.852z"/><path d="M389.111 223.667a119.739 119.739 0 0 0 3.19-27.501c0-65.725-53.472-119.197-119.197-119.197-3.044 0-6.124.117-9.158.346a8.016 8.016 0 0 0-7.388 8.601 8.01 8.01 0 0 0 8.601 7.388c2.631-.2 5.305-.3 7.946-.3 56.883 0 103.161 46.278 103.161 103.161 0 8.049-.929 16.06-2.76 23.813-.993 4.2 1.636 8.532 5.81 9.608 4.289 1.108 8.777-1.613 9.795-5.919z"/></svg>