<svg xmlns="http://www.w3.org/2000/svg" viewBox="0 0 503.607 503.607"><g fill="#ffe100"><path d="M276.984 352.525c-4.197 0-7.554-3.357-8.393-7.554-2.518-18.466 0-29.377 1.679-38.61s3.357-15.108-1.679-26.02c-1.679-4.197 0-9.233 4.197-10.911s9.233 0 10.911 4.197c6.715 15.948 5.036 25.18 2.518 36.092-1.679 8.393-3.357 17.626-1.679 33.574.839 4.196-2.518 8.392-7.554 9.232.839 0 0 0 0 0z"/><path d="M260.197 352.525c-2.518 0-5.036-1.679-6.715-3.357-10.911-13.43-10.072-26.02-10.072-36.092.839-10.072.839-18.466-6.715-31.056-2.518-4.197-1.679-9.233 2.518-11.751s9.233-1.679 11.751 2.518c10.911 16.787 10.072 30.216 10.072 40.289 0 9.233-.839 16.787 6.715 26.02.839 1.679 1.679 3.357 1.679 5.036-.84 5.035-4.197 8.393-9.233 8.393zm33.573 0c-5.036 0-8.393-3.357-8.393-8.393 0-10.911 5.036-17.626 10.911-25.18 6.715-9.233 14.269-19.305 14.269-41.967 0-5.036 3.357-8.393 8.393-8.393s8.393 3.357 8.393 8.393c0 29.377-10.072 42.807-17.626 52.879-5.036 5.875-7.554 9.233-7.554 14.269.001 5.034-3.356 8.392-8.393 8.392zm-8.393-109.115c-3.357 0-6.715-1.679-7.554-5.036-6.715-15.948-5.036-25.18-2.518-36.092 1.679-8.393 3.357-17.626 1.679-33.574-.839-4.197 2.518-8.393 7.554-9.233 5.036-.839 8.393 2.518 9.233 7.554 2.518 18.466 0 29.377-1.679 38.61s-3.357 15.108 1.679 26.02c1.679 4.197 0 9.233-4.197 10.911-1.679.84-3.358.84-4.197.84z"/><path d="M318.951 243.41c-2.518 0-5.875-1.679-6.715-4.197-10.911-16.787-10.072-30.216-10.072-40.289 0-9.233.839-16.787-6.715-26.02-.839-.839-1.679-3.357-1.679-5.036 0-5.036 3.357-8.393 8.393-8.393 2.518 0 5.036 1.679 6.715 3.357 10.911 13.43 10.072 26.02 10.072 36.092-.839 10.072-.839 18.466 6.715 31.056 2.518 4.197 1.679 9.233-2.518 11.751-.839 1.679-2.518 1.679-4.196 1.679zm-75.541 0c-5.036 0-8.393-3.357-8.393-8.393 0-29.377 10.072-42.807 17.626-52.879 5.036-5.875 7.554-9.233 7.554-14.269s3.357-8.393 8.393-8.393 8.393 3.357 8.393 8.393c0 10.911-5.036 17.626-10.911 25.18-6.715 8.393-14.269 18.466-14.269 41.967 0 5.036-3.357 8.394-8.393 8.394z"/><path d="M402.885 8.393h-50.361c-51.2 0-92.328 41.967-92.328 92.328v67.148h33.574v-67.148c0-32.734 26.02-58.754 58.754-58.754h50.361c32.734 0 58.754 26.02 58.754 58.754v394.492h33.574V100.721c0-50.36-41.128-92.328-92.328-92.328M75.541 377.705v25.18a92.062 92.062 0 0 0 92.328 92.328h25.18a92.062 92.062 0 0 0 92.328-92.328v-58.754h-33.574v58.754c0 32.734-26.02 58.754-58.754 58.754h-25.18c-32.734 0-58.754-26.02-58.754-58.754v-25.18H75.541zm75.541-268.59H33.574V25.18c0-9.233 7.554-16.787 16.787-16.787h83.934c9.233 0 16.787 7.554 16.787 16.787v83.935z"/></g><path d="M134.295 8.393h-25.18c9.233 0 16.787 7.554 16.787 16.787v83.934h25.18V25.18c0-9.232-7.554-16.787-16.787-16.787" fill="#ffa800"/><path d="M50.361 8.393h25.18c-9.233 0-16.787 7.554-16.787 16.787v83.934h-25.18V25.18c0-9.232 7.554-16.787 16.787-16.787" fill="#fff"/><path d="M167.869 327.344H16.787c-5.036 0-8.393-3.357-8.393-8.393V117.508c0-5.036 3.357-8.393 8.393-8.393h151.082c5.036 0 8.393 3.357 8.393 8.393v201.443c0 5.036-3.357 8.393-8.393 8.393" fill="#ffe100"/><path d="M167.869 109.115h-25.18c5.036 0 8.393 3.357 8.393 8.393v201.443c0 5.036-3.357 8.393-8.393 8.393h25.18c5.036 0 8.393-3.357 8.393-8.393V117.508c0-4.197-3.357-8.393-8.393-8.393" fill="#ffa800"/><path d="M16.787 109.115h25.18c-5.036 0-8.393 3.357-8.393 8.393v201.443c0 5.036 3.357 8.393 8.393 8.393h-25.18c-5.036 0-8.393-3.357-8.393-8.393V117.508c-.001-4.197 3.357-8.393 8.393-8.393" fill="#fff"/><path d="M117.508 377.705h-50.36c-5.036 0-8.393-3.357-8.393-8.393v-41.967h67.148v41.967c-.001 5.036-3.359 8.393-8.395 8.393" fill="#ffe100"/><path d="M109.115 327.344v41.967c0 5.036-3.357 8.393-8.393 8.393h16.787c5.036 0 8.393-3.357 8.393-8.393v-41.967h-16.787z" fill="#ffa800"/><path d="M75.541 327.344v41.967c0 5.036 3.357 8.393 8.393 8.393H67.148c-5.036 0-8.393-3.357-8.393-8.393v-41.967h16.786z" fill="#fff"/><path d="M151.082 117.508H33.574c-5.036 0-8.393-3.357-8.393-8.393V25.18C25.18 10.911 36.092 0 50.361 0h83.934c14.269 0 25.18 10.911 25.18 25.18v83.934c0 5.037-3.357 8.394-8.393 8.394zM41.967 100.721h100.721V25.18c0-5.036-3.357-8.393-8.393-8.393H50.361c-5.036 0-8.393 4.197-8.393 8.393v75.541z"/><path d="M167.869 335.738H16.787C7.554 335.738 0 328.184 0 318.951V117.508c0-9.233 7.554-16.787 16.787-16.787h151.082c9.233 0 16.787 7.554 16.787 16.787v201.443c0 9.233-7.554 16.787-16.787 16.787zm0-16.787v8.393-8.393zM16.787 117.508v201.443h151.082V117.508H16.787z"/><path d="M117.508 386.098h-50.36c-9.233 0-16.787-7.554-16.787-16.787v-41.967c0-5.036 3.357-8.393 8.393-8.393h67.148c5.036 0 8.393 3.357 8.393 8.393v41.967c0 9.233-7.554 16.787-16.787 16.787zm0-16.787v8.393-8.393zm-50.36-33.573v33.574h50.361v-33.574H67.148zm0-109.115c-2.518 0-4.197-.839-5.875-2.518-3.357-3.357-3.357-8.393 0-11.751l50.361-50.361c3.357-3.357 8.393-3.357 11.751 0s3.357 8.393 0 11.751l-50.361 50.361c-1.68 1.679-3.358 2.518-5.876 2.518zm0 50.361c-2.518 0-4.197-.839-5.875-2.518-3.357-3.357-3.357-8.393 0-11.751l50.361-50.361c3.357-3.357 8.393-3.357 11.751 0s3.357 8.393 0 11.751l-50.361 50.361c-1.68 1.678-3.358 2.518-5.876 2.518z"/><path d="M117.508 226.623h-50.36c-5.036 0-8.393-3.357-8.393-8.393s3.357-8.393 8.393-8.393h50.361c5.036 0 8.393 3.357 8.393 8.393s-3.358 8.393-8.394 8.393zM268.59 352.525c-4.197 0-7.554-3.357-8.393-7.554-2.518-18.466 0-29.377 1.679-38.61s3.357-15.108-1.679-26.02c-1.679-4.197 0-9.233 4.197-10.911s9.233 0 10.911 4.197c6.715 15.948 5.036 25.18 2.518 36.092-1.679 8.393-3.357 17.626-1.679 33.574.84 4.196-2.518 8.392-7.554 9.232.84 0 0 0 0 0z"/><path d="M251.803 352.525c-2.518 0-5.036-1.679-6.715-3.357-10.911-13.43-10.072-26.02-10.072-36.092.839-10.072.839-18.466-6.715-31.056-2.518-4.197-1.679-9.233 2.518-11.751 4.197-2.518 9.233-1.679 11.751 2.518 10.911 16.787 10.072 30.216 10.072 40.289 0 9.233-.839 16.787 6.715 26.02.839 1.679 1.679 3.357 1.679 5.036-.839 5.035-4.197 8.393-9.233 8.393zm33.574 0c-5.036 0-8.393-3.357-8.393-8.393 0-10.911 5.036-17.626 10.911-25.18 6.715-9.233 14.269-19.305 14.269-41.967 0-5.036 3.357-8.393 8.393-8.393 5.036 0 8.393 3.357 8.393 8.393 0 29.377-10.072 42.807-17.626 52.879-5.036 5.875-7.554 9.233-7.554 14.269 0 5.034-3.357 8.392-8.393 8.392zm-8.393-109.115c-3.357 0-6.715-1.679-7.554-5.036-6.715-15.948-5.036-25.18-2.518-36.092 1.679-8.393 3.357-17.626 1.679-33.574-.839-4.197 2.518-8.393 7.554-9.233 5.036-.839 8.393 2.518 9.233 7.554 2.518 18.466 0 29.377-1.679 38.61s-3.357 15.108 1.679 26.02c1.679 4.197 0 9.233-4.197 10.911-1.679.84-3.358.84-4.197.84z"/><path d="M310.557 243.41c-2.518 0-5.875-1.679-6.715-4.197-10.911-16.787-10.072-30.216-10.072-40.289 0-9.233.839-16.787-6.715-26.02-.839-.839-1.679-3.357-1.679-5.036 0-5.036 3.357-8.393 8.393-8.393 2.518 0 5.036 1.679 6.715 3.357 10.911 13.43 10.072 26.02 10.072 36.092-.839 10.072-.839 18.466 6.715 31.056 2.518 4.197 1.679 9.233-2.518 11.751-.838 1.679-2.517 1.679-4.196 1.679zm-75.541 0c-5.036 0-8.393-3.357-8.393-8.393 0-29.377 10.072-42.807 17.626-52.879 5.036-5.875 7.554-9.233 7.554-14.269s3.357-8.393 8.393-8.393 8.393 3.357 8.393 8.393c0 10.911-5.036 17.626-10.911 25.18-6.715 8.393-14.269 18.466-14.269 41.967.001 5.036-3.357 8.394-8.393 8.394z"/><path d="M495.213 503.607h-33.574c-5.036 0-8.393-3.357-8.393-8.393V100.721c0-27.698-22.662-50.361-50.361-50.361h-50.361c-27.698 0-50.361 22.662-50.361 50.361v67.148c0 5.036-3.357 8.393-8.393 8.393h-33.574c-5.036 0-8.393-3.357-8.393-8.393v-67.148C251.803 45.325 297.128 0 352.525 0h50.361c55.397 0 100.721 45.325 100.721 100.721v394.492c0 5.036-3.358 8.394-8.394 8.394zm-25.18-16.787h16.787V100.721c0-46.164-37.77-83.934-83.934-83.934h-50.361c-46.164 0-83.934 37.77-83.934 83.934v58.754h16.787v-58.754c0-36.931 30.216-67.148 67.148-67.148h50.361c36.931 0 67.148 30.216 67.148 67.148V486.82zm-276.984 16.787h-25.18c-55.397 0-100.721-45.325-100.721-100.721v-25.18c0-5.036 3.357-8.393 8.393-8.393h33.574c5.036 0 8.393 3.357 8.393 8.393v25.18c0 27.698 22.662 50.361 50.361 50.361h25.18c27.698 0 50.361-22.662 50.361-50.361v-58.754c0-5.036 3.357-8.393 8.393-8.393h33.574c5.036 0 8.393 3.357 8.393 8.393v58.754c0 56.235-45.324 100.721-100.721 100.721zM83.934 386.098v16.787c0 46.164 37.77 83.934 83.934 83.934h25.18c46.164 0 83.934-37.77 83.934-83.934v-50.361h-16.787v50.361c0 36.931-30.216 67.148-67.148 67.148h-25.18c-36.931 0-67.148-30.216-67.148-67.148v-16.787H83.934z"/></svg>