<svg xmlns="http://www.w3.org/2000/svg" viewBox="0 0 245.71 245.71"><path d="M221.753 137.628c7.422-21.693-7.607-79.333-26.063-86.179-18.45-6.852-30.249-7.613-30.249-7.613s-49.919-26.932-61.771 15.73c0 0-32.35 1.21-59.585 31.674C17.193 97.147-.295 126.991.003 134.45c2.386-.407 11.531-5.021 11.531-5.021 4.821-14.658 14.127-17.507 17.232-17.199l.778-.567c-12.523 22.15-21.745 53.669-22.334 98.598h34.535s-.166-7.62-5.212-12.976c4.053-14.738 9.387-32.706 12.299-31.924 2.913.788-2.216 44.899-2.216 44.899h34.541s-.168-7.552-5.155-12.906c.576-28.01 9.592-42.59 36.499-38.415 6.624 1.027-12.537 51.321-12.537 51.321h39.086s-.245-11.123-9.049-15.931c.186-5.398 1.684-21.067 6.097-21.378 4.42-.306 18.442 37.309 18.442 37.309h32.204s-.319-15.195-14.263-17.757c-2.044-4.568-3.404-9.075-4.943-13.972-3.432-10.843-12.942-44.895-12.942-44.895s-.897-4.081 3.613-6.096c6.447-2.893 7.425-3.049 8.948 0 1.519 3.045 3.605 5.517 7.035 3.999 3.426-1.521 4.943-.577 6.848 1.903 1.903 2.468 14.268 15.41 14.268 15.41s.318.281.885.748c.695.77 1.352 2.138.066 4.003-2.09 3.045-3.236 4.191-5.324 4.38-2.098.185-6.277-1.143-4.186-3.233 2.089-2.097.763-3.803-1.523-6.091-2.282-2.282-4.947-4.37-7.038.381-2.088 4.752-10.649 23.774 11.035 23.022 8.557-.448 15.764-4.858 21.775-12.853 9.752 4.933 22.676 8.794 34.709 3.866-12.807-2.763-21.65-5.162-29.771-11.73 2.124-4.023 4.069-8.584 5.817-13.717z"/></svg>