<svg xmlns="http://www.w3.org/2000/svg" viewBox="0 0 511.997 511.997"><path fill="#ed5564" d="M485.32 433.309l-8-27.985-43.999-16.827-68-33-48-9.749-65.327 6.233h-50.828l-36.507-6.233-20.672 9.749L98.66 379.31l-50 23.343-24 13.343-3.336 36.656 3.336 47.344h467.988z"/><path fill="#eac6bb" d="M130.995 194.498l5 34.5 21 43 44.171 48 37.328 24.25 23 1.5 31.999-8.75 40.688-31 38.812-50 16-61.5z"/><path fill="#ffce54" d="M222.498 355.498h64.5v144.5h-64.5z"/><path fill="#ed5564" d="M383.493 127.999l-44.5-84.858L269.994 23.5 223.995 27l-45.5 23-27.5 31.499-19.5 39-4.5 53.999v17.5l199.998 2.5 62-13z"/><path d="M327.493 159.999l-66.499-12-93.499 11.5-45.5 24.999 8 8 251.998-1v-13zM165.495 299.998l-8.5 45.75 48.421 45.749 39.914-33.5zm177.998 0l-85.499 54.999 51.999 33.5 40-40z" fill="#ffce54"/><g fill="#080808"><path d="M248.455 451.121c-4.172 4.156-4.172 10.906 0 15.078a10.647 10.647 0 0 0 15.078 0c4.172-4.172 4.172-10.922 0-15.078a10.647 10.647 0 0 0-15.078 0zm0-42.672c-4.172 4.172-4.172 10.922 0 15.078a10.647 10.647 0 0 0 15.078 0c4.172-4.156 4.172-10.906 0-15.078a10.647 10.647 0 0 0-15.078 0z"/><path d="M460.212 386.356l-1.812-.531c-26.469-7.109-35.438-13.938-47.219-18.422-28.031-10.688-42.156-19.375-49.25-25.562l-6.094-45.25c19.875-26.875 34.578-59.625 37.25-93.938h11.469c5.859 0 8.406-4.234 5.656-9.406 0 0-3.266-6.125-12.281-14.25v-26.405c0-74.75-59-135.999-131.288-141.53 0-.125.016-.266.016-.406C266.659 4.781 261.886 0 255.995 0s-10.664 4.781-10.664 10.656c0 .141.016.281.016.406-72.296 5.531-131.288 66.78-131.288 141.53l-.009 26.406c-9.008 8.125-12.266 14.25-12.266 14.25-2.758 5.172-.211 9.406 5.656 9.406h11.453c2.68 34.312 17.375 67.062 37.25 93.938l-6.078 45.25c-7.094 6.187-21.219 14.874-49.265 25.562-11.781 4.484-20.742 11.312-47.21 18.422l-1.812.531c-24.102 7.953-40.305 30.296-40.305 55.515v70.125h489.051v-70.125c-.001-25.22-16.219-47.562-40.312-55.516zm-119.625-43.155l-32.219 35.874-25.358-21.922c17.89-7.25 37.015-20.796 54.265-38.608l3.312 24.656zm-136.975 35.874l-32.203-35.874 3.312-24.656c17.242 17.812 36.375 31.358 54.258 38.608l-25.367 21.922zm-55.484-197.749c11.227-5.938 24.438-10.702 39.312-14.218 20.039-4.719 43.102-7.109 68.554-7.109 25.438 0 48.515 2.391 68.562 7.109 14.875 3.516 28.078 8.28 39.312 14.218h-215.74zm-3.125-75.561c6.156-14.344 14.953-27.266 26.164-38.391 11.171-11.093 24.117-19.812 38.476-25.921C224.424 35.187 240.018 32 255.994 32s31.562 3.188 46.343 9.453c14.375 6.109 27.312 14.828 38.5 25.921 11.188 11.125 20 24.047 26.156 38.391 6.375 14.859 9.609 30.625 9.609 46.828v11.375c-23.266-12.938-61.047-25.312-120.608-25.312-59.57 0-97.351 12.359-120.608 25.312v-11.375c0-16.203 3.234-31.969 9.617-46.828zm226.678 96.889c-2.969 31.953-18.375 65.656-43.312 94.094-12.25 13.953-25.969 25.625-39.688 33.766-12.233 7.266-23.843 11.266-32.687 11.266s-20.453-4-32.687-11.266c-13.719-8.141-27.438-19.812-39.688-33.766-24.937-28.438-40.343-62.141-43.312-94.094h231.374zM32.801 490.652v-48.781c0-15.906 10.164-29.969 25.328-35.156l1.195-.344c19.945-5.374 30.961-10.64 39.812-14.874 3.422-1.641 6.383-3.062 9.258-4.156 16.148-6.156 36.414-14.719 50.953-25.641l35.375 39.422a10.64 10.64 0 0 0 7.945 3.53c2.469 0 4.953-.843 6.969-2.593l3.695-3.188v91.78l-180.53.001zm201.857 0V380.435l20.094-17.344c.414 0 .828.016 1.242.016s.828-.016 1.242-.016l20.102 17.344v110.218h-42.68v-.001zm244.522 0H298.65v-91.78l3.703 3.188a10.584 10.584 0 0 0 6.969 2.593c2.922 0 5.828-1.187 7.953-3.53l35.375-39.438c14.531 10.953 34.812 19.5 50.969 25.656 2.844 1.094 5.812 2.516 9.234 4.156 8.859 4.234 19.859 9.5 39.812 14.874l1.203.344c15.155 5.188 25.312 19.25 25.312 35.156v48.781z"/><path d="M234.658 96.233h22.656l-10.172 15.141c-3.289 4.906-1.984 11.531 2.906 14.812a10.655 10.655 0 0 0 5.938 1.812 10.65 10.65 0 0 0 8.859-4.719l21.336-31.766a10.69 10.69 0 0 0 .562-10.953 10.66 10.66 0 0 0-9.406-5.656h-22.664l10.172-15.156c3.289-4.874 1.984-11.499-2.906-14.796-4.891-3.281-11.516-1.984-14.797 2.922l-21.335 31.749a10.682 10.682 0 0 0-.562 10.969 10.685 10.685 0 0 0 9.413 5.641z"/></g></svg>