<svg xmlns="http://www.w3.org/2000/svg" viewBox="0 0 459.4 459.4"><path d="M404.5 334.6c19.2 19.2 19.2 50.4 0 69.6-9.6 9.6-21.6 14.4-35.2 14.4s-25.6-4.8-34.4-14.4l-8.8-8.8c-5.6-6.4-14.4-9.6-22.4-9.6-4 0-8 .8-12 2.4-19.2 8-40 12-61.6 12-44.8 0-87.2-17.6-119.2-49.6-47.2-48-62.4-119.2-37.6-181.6 4.8-12 2.4-25.6-7.2-34.4l-11.2-10.4c-19.2-19.2-19.2-50.4 0-69.6 8.8-10.4 21.6-15.2 34.4-15.2s25.6 4.8 35.2 14.4L135.7 65c6.4 6.4 14.4 9.6 22.4 9.6 4 0 7.2-.8 10.4-1.6 20-7.2 40-11.2 60.8-11.2 44.8 0 88 18.4 119.2 49.6 47.2 47.2 62.4 117.6 38.4 179.2-4 12-1.6 25.6 7.2 34.4l10.4 9.6z" fill="#6cd3d8"/><path d="M251.1 209.8c-4-1.3-7.5-2.4-10.6-3.4-2.5-.8-4.8-1.5-6.9-2.2-1.7-.6-3.2-1.1-4.7-1.6-2.7-1-5.1-1.8-7.3-2.4-17-6.9-20.6-16.4-20.6-23.2 0-9.8 4.7-26.2 35.8-26.2 5.2 0 13.4 1.7 23.6 3.9C273 158 279 158 281.6 158c16.7 0 18.6-8.3 18.6-14.6 0-8.8-7.3-15.8-22.4-21.5l-.2-.1-.2-.1c-11.4-3.3-24.6-5-38.2-5-23.2 0-43.6 5.9-59 17-16.7 12.3-25.2 28.5-25.2 48 0 16.6 6.4 29.5 18.9 38.4 9.5 6.9 25.6 13.6 46.4 19.2 14.3 4.3 25 8.2 31.8 11.6 11.7 6.1 17.3 14.9 17.3 26.8 0 9.2-3.5 16.3-10.7 21.6l-.2.1c-7.1 5.6-15.4 8.5-24.9 8.5-9 0-20.1-1.8-33-5.4-16.9-5.1-24.3-5.8-28.3-5.8-1.5-.2-3-.2-4.3-.2-6.6 0-11.2 1.9-13.9 5.7-2.3 3.3-2.3 6.9-2.3 9.1 0 13.4 15.1 19.4 28.4 23.2 12.4 3.9 27.6 5.8 45.4 5.8 25 0 46.4-5.7 63.5-16.8l.1-.1.1-.1c17.3-12.9 26-30.2 26-51.2.1-28.7-21.5-49.7-64.2-62.3z" fill="#fff"/><path d="M424.8 314.3l-9.2-9.2c-.5-.8-1.1-2.4-.7-4.2 13.6-35.3 16.5-73.8 8.4-111.2-8.1-37.5-26.6-71.6-53.7-98.6-18.8-18.8-40.7-33.4-65.2-43.4-24.1-9.9-49.5-14.9-75.5-14.9-23.6 0-46.6 4.2-68.6 12.4l-.2.1-.2.1c-.4.2-.8.3-1.1.3-.8 0-1.5-.5-1.9-1l-12.1-11.3c-15.3-15.3-34-23-55.5-23-20.4 0-40.1 8.5-55.5 23.8-14.8 14.3-23 33.6-23.1 54.3-.1 21.1 8 41 23.1 56l.1.1L45.1 155c.3.3.9 1.1.3 3.7C16.6 232 34.1 315.2 89.8 370.9c37.4 37.4 87.1 58 139.9 58 24.8 0 49.3-4.6 72.7-13.7l.2-.1.2-.1.6-.3h.4c.4 0 1.5.3 2.1.9l8.8 8.8c14.5 14.9 34 23.1 54.9 23.1s40.6-8.2 55.4-23c14.8-14.3 23-33.6 23.1-54.3-.1-21-8.2-40.9-23.3-55.9zm-24.6 86.4c-8.3 8.3-19.6 12.9-31.7 12.9-11.7 0-22.4-4.5-30.9-12.9l-8.7-8.7c-6.4-7.2-15.6-11.2-26-11.2-4.6 0-9.3.9-13.9 2.8-18.5 7.7-38.6 11.6-59.7 11.6-43.5 0-84.6-17.1-115.6-48.1-46-46.8-60.4-116.3-36.5-177 5.5-13.7 2.2-29.3-8.3-39.8l-.1-.1-11.2-10.4c-8.3-8.3-12.9-19.4-12.9-31.2s4.6-22.9 12.9-31.3c8.6-8.6 19.2-12.9 31.7-12.9 12.4 0 23.1 4.4 31.7 12.9l11.1 11.1c6.4 7.2 15.6 11.2 26 11.2 4.4 0 9 0 12.6-2.1 20.2-7.2 39.4-10.7 58.6-10.7 42.3 0 85.5 18 115.7 48.1 45.1 45.1 59.8 113.4 37.3 173.9-5.4 14.3-2.2 29.1 8.3 39.7l9.6 9.6c17.2 17.3 17.2 45.3 0 62.6z" fill="#1d9aae"/><path d="M157.3 311.4c0 8 8 13.6 24.8 18.4 12.8 4 28 5.6 44 5.6 24.8 0 44.8-5.6 60.8-16 16-12 24-28 24-47.2 0-26.4-20-45.6-60.8-57.6-7.2-2.4-12.8-4-17.6-5.6-4.8-1.6-8.8-3.2-12-4-20-8-24-20-24-28 0-11.2 5.6-31.2 40.8-31.2 5.6 0 13.6 1.6 24.8 4 12 3.2 17.6 3.2 20 3.2 13.6 0 13.6-5.6 13.6-9.6 0-6.4-6.4-12-19.2-16.8-11.2-3.2-24-4.8-36.8-4.8-22.4 0-41.6 5.6-56 16-15.2 11.2-23.2 25.6-23.2 44 0 15.2 5.6 26.4 16.8 34.4 8.8 6.4 24 12.8 44.8 18.4 16 4.8 26.4 8.8 32.8 12 16.8 8.8 20 21.6 20 31.2 0 10.4-4 19.2-12.8 25.6-8 6.4-17.6 9.6-28 9.6-8.8 0-20-1.6-34.4-5.6-16-4.8-23.2-5.6-27.2-5.6-15.2-1.6-15.2 5.6-15.2 9.6zm20.8 34.4c-24-6.4-36.8-17.6-36.8-33.6 0-8 3.2-28 32-28 6.4 0 16.8 2.4 31.2 6.4 12.8 3.2 23.2 5.6 30.4 5.6 7.2 0 12.8-2.4 17.6-6.4 4.8-4 6.4-8 6.4-12.8s-1.6-11.2-11.2-16.8c-5.6-2.4-15.2-6.4-29.6-10.4-23.2-6.4-39.2-12.8-49.6-20.8-16-11.2-24-27.2-24-47.2 0-23.2 10.4-42.4 29.6-56.8 17.6-12.8 40-19.2 65.6-19.2 14.4 0 28.8 2.4 41.6 5.6 20 7.2 30.4 17.6 30.4 32 0 8-3.2 25.6-29.6 25.6-4.8 0-12.8-1.6-24-4-12-3.2-18.4-3.2-20.8-3.2-24.8 0-24.8 10.4-24.8 15.2 0 2.4 0 8 14.4 13.6 2.4 1.6 6.4 2.4 10.4 4 4.8 1.6 10.4 3.2 17.6 5.6 48 14.4 72 38.4 72 72.8 0 24.8-10.4 45.6-31.2 60.8-19.2 12.8-42.4 19.2-70.4 19.2-16.8-.8-32.8-3.2-47.2-7.2zM141.3 37c-13.6-13.6-32-21.6-52-21.6-19.2 0-37.6 8-52 21.6-28.8 28.8-28.8 75.2 0 103.2l11.2 11.2c2.4 2.4 3.2 5.6 1.6 8.8-28 71.2-11.2 152.8 43.2 207.2s136 71.2 207.2 43.2c.8 0 1.6-.8 3.2-.8 2.4 0 4 .8 5.6 2.4l8.8 8.8c28.8 28.8 75.2 28.8 103.2 0 28.8-28.8 28.8-75.2 0-103.2l-9.6-9.6c-2.4-2.4-3.2-5.6-1.6-8.8 27.2-71.2 9.6-151.2-44-204.8s-133.6-71.2-204.8-44c-3.2.8-6.4 0-8.8-1.6l-11.2-12zM26.1 25.8c35.2-34.4 92-34.4 126.4 0l8 8c76-26.4 160-7.2 216.8 49.6s76 141.6 49.6 216.8l6.4 6.4c34.4 35.2 34.4 91.2 0 126.4-17.6 17.6-40 26.4-63.2 26.4s-45.6-8.8-63.2-26.4l-4.8-5.6c-76.8 28-162.4 9.6-220-48s-76.8-144-48.8-220.8l-7.2-7.2C-8.3 117-8.3 60.2 26.1 25.8z" fill="#42210b"/></svg>