<svg xmlns="http://www.w3.org/2000/svg" viewBox="0 0 512 512"><path d="M94.465 8.688h322.826v46.59H94.465zm0 448.046h322.826v46.59H94.465z" fill="#8de0a8"/><path d="M94.465 8.688h65.344v46.59H94.465zm0 448.046h65.344v46.59H94.465z" fill="#7bc690"/><path d="M125.326 456.728v-65.95c-.775-66.267 47.83-121.329 111.314-130.702-62.984-9.301-111.322-63.573-111.322-129.141V55.272h261.1v74.101c.775 66.267-47.83 121.329-111.314 130.704 62.984 9.301 111.322 63.573 111.322 129.141v67.511h-261.1z" fill="#cfdce5"/><path d="M272.55 260.075c-62.984-9.301-111.322-63.573-111.322-129.141V55.272h-35.91v75.662c0 65.568 48.339 119.842 111.322 129.141-63.483 9.374-112.087 64.436-111.313 130.702v65.95h35.91v-65.95c-.775-66.265 47.829-121.327 111.313-130.702z" fill="#bac6cc"/><path d="M364.759 456.728c0-60.137-48.75-108.887-108.887-108.887s-108.887 48.75-108.887 108.887" fill="#fcd577"/><path d="M272.09 349.044a109.764 109.764 0 0 0-16.217-1.204c-60.137 0-108.887 48.75-108.887 108.887h32.434c0-54.624 40.226-99.851 92.67-107.683z" fill="#eac36e"/><path fill="#fcd577" d="M204.411 138.986l16.036 108.249 25.686-27.631 30.35 28.213 41.72-44.879-30.349-28.213 25.686-27.63z"/><path d="M417.413 63.959a8.688 8.688 0 0 0 8.688-8.688V8.688A8.688 8.688 0 0 0 417.413 0h-56.001c-4.799 0-8.688 3.89-8.688 8.688s3.889 8.688 8.688 8.688h47.314v29.208H103.275V17.376h229.178c4.799 0 8.688-3.89 8.688-8.688S337.252 0 332.453 0H94.587a8.688 8.688 0 0 0-8.688 8.688v46.584a8.688 8.688 0 0 0 8.688 8.688h22.17v66.975a139.155 139.155 0 0 0 34.178 91.376 139.57 139.57 0 0 0 53.022 37.793c-28.816 11.704-53.506 32.98-69.097 60.415a8.69 8.69 0 0 0 15.107 8.585c18.424-32.419 51.347-55.011 88.07-60.433a8.688 8.688 0 0 0 0-17.188c-2.737-.404-5.444-.93-8.135-1.519l16.808-18.08 23.061 21.438a8.688 8.688 0 0 0 4.192 15.35c28.616 4.226 54.896 18.637 73.997 40.58a121.776 121.776 0 0 1 29.907 79.967v58.823h-4.608c-2.09-28.982-14.616-55.743-35.81-76.106-3.459-3.325-8.959-3.213-12.283.246a8.686 8.686 0 0 0 .246 12.283c17.747 17.052 28.341 39.373 30.396 63.576H156.182C160.6 396.844 203.678 356.53 256 356.53c16.865 0 33.535 4.266 48.211 12.338a8.689 8.689 0 0 0 8.374-15.225c-17.234-9.479-36.801-14.489-56.585-14.489-61.908 0-112.792 48.098-117.253 108.887h-4.605v-57.364c-.146-12.472 1.579-24.783 5.129-36.593a8.686 8.686 0 0 0-5.819-10.82 8.688 8.688 0 0 0-10.822 5.82 139.19 139.19 0 0 0-5.865 41.696v57.262h-22.18a8.688 8.688 0 0 0-8.688 8.688v46.586a8.688 8.688 0 0 0 8.688 8.688H417.41a8.688 8.688 0 0 0 8.688-8.688v-46.584a8.688 8.688 0 0 0-8.688-8.688h-22.171v-58.823a139.159 139.159 0 0 0-34.178-91.376 139.566 139.566 0 0 0-52.948-37.764 139.517 139.517 0 0 0 53.453-38.35 139.056 139.056 0 0 0 33.665-92.355V63.959h22.182zm-8.688 430.665h-305.45v-29.208h305.45v29.208zm-121.002-246l36.971-39.77a8.689 8.689 0 0 0-.448-12.279l-23.986-22.299 19.771-21.268a8.686 8.686 0 0 0-5.72-14.579l-37.975-2.822a8.676 8.676 0 0 0-9.308 8.021 8.688 8.688 0 0 0 8.021 9.308l19.948 1.482-13.379 14.392a8.69 8.69 0 0 0 .448 12.279l23.986 22.299-29.889 32.153-23.986-22.297c-3.513-3.268-9.011-3.066-12.279.448l-13.379 14.392-11.797-79.626 30.369 2.257c4.79.359 8.953-3.235 9.308-8.021a8.688 8.688 0 0 0-8.021-9.308l-41.197-3.06a8.718 8.718 0 0 0-7.007 2.749 8.687 8.687 0 0 0-2.231 7.189l15.419 104.077a122.164 122.164 0 0 1-47.323-33.435 121.776 121.776 0 0 1-29.907-79.967v-66.98h243.725v65.515c.656 55.96-37.25 104.907-90.134 119.15z"/><circle cx="306.968" cy="407.167" r="8.688"/><circle cx="293.068" cy="430.335" r="8.688"/><circle cx="319.907" cy="429.176" r="8.688"/></svg>