<svg xmlns="http://www.w3.org/2000/svg" viewBox="0 0 512 512"><path d="M256 503.916C3.338 407.401 11.265 143.941 23.772 45.688c2.738-21.51 21.08-37.604 42.763-37.604h378.93c21.683 0 40.024 16.094 42.762 37.603C500.735 143.941 508.662 407.401 256 503.916z" fill="#feaf50"/><path d="M256 503.916V8.084h189.465c21.683 0 40.024 16.094 42.762 37.603C500.735 143.941 508.662 407.401 256 503.916z" fill="#fe9443"/><path d="M85.854 61.979h340.291c5.576 0 10.222 4.248 10.736 9.8 9.138 98.735 1.204 291.825-180.882 373.803C73.914 363.604 65.98 170.514 75.118 71.779c.514-5.552 5.16-9.8 10.736-9.8z" fill="#fef184"/><path d="M436.881 71.779c9.138 98.735 1.204 291.825-180.882 373.803V61.979h170.146c5.576 0 10.222 4.248 10.736 9.8z" fill="#fed76e"/><path d="M370.256 161.146L257.077 312.052a21.559 21.559 0 0 1-34.492 0l-48.505-64.674c-7.143-9.524-5.213-23.038 4.312-30.181 9.523-7.144 23.038-5.214 30.181 4.312l31.259 41.679 95.933-127.911c7.142-9.524 20.655-11.455 30.181-4.312 9.522 7.143 11.453 20.657 4.31 30.181z" fill="#699e69"/><path d="M444.931 71.032c4.596 49.661 5.011 124.061-19.111 196.486-28.724 86.237-84.742 148.626-166.501 185.436a8.083 8.083 0 0 1-6.638 0c-81.759-36.81-137.778-99.199-166.5-185.435-24.124-72.427-23.709-146.825-19.112-196.486.904-9.77 8.98-17.139 18.786-17.139h40.798c4.465 0 8.084 3.618 8.084 8.084s-3.62 8.084-8.084 8.084H85.854a2.69 2.69 0 0 0-2.686 2.461C73.725 174.548 83.785 356.907 256 436.695c172.214-79.787 182.275-262.146 172.833-364.171a2.693 2.693 0 0 0-2.686-2.461H158.989c-4.465 0-8.084-3.618-8.084-8.084s3.62-8.084 8.084-8.084h267.157c9.803 0 17.881 7.367 18.785 17.137zm34.342 206.82c-15.86 51.03-40.264 95.732-72.535 132.868-38.209 43.971-87.955 77.867-147.853 100.748a8.097 8.097 0 0 1-5.769 0c-59.899-22.88-109.643-56.777-147.854-100.748-32.27-37.135-56.675-81.838-72.534-132.868C3.928 185.188 9.73 91.979 15.752 44.666 18.993 19.202 40.825 0 66.535 0h378.931c25.71 0 47.539 19.202 50.782 44.666 6.022 47.313 11.825 140.521-16.975 233.186zm.935-231.144c-2.217-17.41-17.153-30.54-34.743-30.54H66.535c-17.591 0-32.528 13.13-34.744 30.54C18.599 150.351 14.211 400.89 256 495.251c241.79-94.363 237.401-344.9 224.208-448.543zM216.117 316.902l-48.505-64.674c-9.807-13.075-7.148-31.691 5.928-41.499 6.334-4.75 14.139-6.751 21.977-5.631s14.771 5.225 19.522 11.559l24.792 33.056 89.465-119.287c9.805-13.076 28.422-15.735 41.498-5.929 13.076 9.809 15.736 28.425 5.93 41.5l-113.18 150.905c-5.567 7.425-14.433 11.857-23.714 11.857-9.28 0-18.145-4.432-23.713-11.857zm-35.571-74.375l48.505 64.674a13.536 13.536 0 0 0 10.779 5.389c4.219 0 8.248-2.015 10.779-5.389l113.179-150.905c4.457-5.944 3.249-14.405-2.695-18.863-5.947-4.459-14.407-3.25-18.863 2.695l-95.933 127.911a8.083 8.083 0 0 1-12.934 0l-31.259-41.679a13.391 13.391 0 0 0-8.873-5.255 13.726 13.726 0 0 0-1.934-.138 13.36 13.36 0 0 0-8.055 2.698c-5.945 4.457-7.154 12.919-2.696 18.862z"/></svg>