<svg xmlns="http://www.w3.org/2000/svg" viewBox="0 0 503.323 503.323"><path d="M276.453.561C236.63 5.056 204.478 37.85 200.13 78.376c-3.107 28.932 7.567 55.365 26.147 73.494 14.032 13.694 25.383 32.395 25.383 52.181v4.217h69.424c0-20.714 7.671-40.214 22.892-53.968 17.903-16.167 29.175-39.745 29.175-66.013.001-52.085-44.326-93.636-96.698-87.726" fill="#f0c419"/><g fill="#f29c1f"><path d="M286.375 216.95a8.676 8.676 0 0 1-8.678-8.678v-86.78c0-4.79 3.879-8.678 8.678-8.678s8.678 3.888 8.678 8.678v86.78c0 4.79-3.88 8.678-8.678 8.678"/><path d="M286.375 130.17a8.676 8.676 0 0 1-8.678-8.678c0-28.715 23.352-52.068 52.068-52.068 4.799 0 8.678 3.888 8.678 8.678s-3.879 8.678-8.678 8.678c-19.144 0-34.712 15.568-34.712 34.712 0 4.79-3.88 8.678-8.678 8.678"/><path d="M286.375 130.17a8.676 8.676 0 0 1-8.678-8.678c0-19.144-15.568-34.712-34.712-34.712-4.799 0-8.678-3.888-8.678-8.678s3.879-8.678 8.678-8.678c28.715 0 52.068 23.352 52.068 52.068 0 4.79-3.88 8.678-8.678 8.678"/></g><path d="M497.248 339.882c6.717-5.571 8.079-15.447 2.994-22.537-10.874-15.143-19.89-18.744-57.665 1.119l-75.273 46.011c-23.005 12.227-83.369 8.678-109.412 8.678 0 0 61.457 4.165 36.933-32.447-12.201-18.206-33.237-28.542-55.148-28.542h-33.853c-19.734 0-39.198-5.866-54.949-17.746-36.769-27.717-107.485 26.667-107.485 26.667v156.203h121.492c17.33 0 34.642-1.31 51.773-3.914l113.109-17.2c3.862 0 7.611-.451 11.238-1.258l.174-.026c9.155-1.284 17.521-5.918 24.203-12.314l131.869-102.694z" fill="#fac176"/><path fill="#4482c3" d="M.002 503.323h43.39V295.051H.002z"/><path d="M149.976 407.865a8.676 8.676 0 0 1-8.678-8.678c0-21.738 16.219-34.712 43.39-34.712h84.332c4.799 0 8.678 3.888 8.678 8.678s-3.879 8.678-8.678 8.678h-84.332c-26.034 0-26.034 13.06-26.034 17.356a8.676 8.676 0 0 1-8.678 8.678" fill="#f18d46"/><path fill="#ecf0f1" d="M251.663 242.984h69.423v-34.712h-69.423z"/><path fill="#bdc3c7" d="M307.621 277.695h-42.496l-13.46-34.711h69.424z"/></svg>