<svg xmlns="http://www.w3.org/2000/svg" viewBox="0 0 512 512"><path d="M509.653 113.512l-85.511-85.511a8.021 8.021 0 0 0-5.669-2.347H93.528a8.016 8.016 0 0 0-8.017 8.017v470.313a8.016 8.016 0 0 0 8.017 8.017h410.455a8.016 8.016 0 0 0 8.017-8.017V119.182a8.024 8.024 0 0 0-2.347-5.67z" fill="#f2f2f2"/><path d="M511.982 118.826a8.013 8.013 0 0 0-2.33-5.312L424.14 28.002a8.014 8.014 0 0 0-5.668-2.348h-.356v85.156a8.017 8.017 0 0 0 8.017 8.017h85.849zM93.528 25.653a8.016 8.016 0 0 0-8.017 8.017v470.313A8.016 8.016 0 0 0 93.528 512h375.888L136.144 25.653H93.528z" fill="#e5e5e5"/><path d="M214.313 0H24.05C10.789 0 0 10.789 0 24.05v258.672c0 13.261 10.789 24.05 24.05 24.05h190.263c13.261 0 24.05-10.789 24.05-24.05V24.05c0-13.261-10.789-24.05-24.05-24.05z" fill="#666"/><path d="M358.614 247.983c-65.717 0-119.182 53.465-119.182 119.182s53.465 119.182 119.182 119.182 119.182-53.465 119.182-119.182-53.466-119.182-119.182-119.182z" fill="#f7d04a"/><path d="M382.129 462.831c-65.717 0-119.182-53.465-119.182-119.182 0-26.875 8.946-51.698 24.009-71.656-28.845 21.772-47.525 56.331-47.525 95.172 0 65.717 53.465 119.182 119.182 119.182 38.841 0 73.4-18.68 95.172-47.525-19.957 15.063-44.78 24.009-71.656 24.009z" fill="#f3b41b"/><path d="M376.915 360.217l-12.423-.366v-44.528h28.326a8.016 8.016 0 0 0 8.017-8.017 8.016 8.016 0 0 0-8.017-8.017h-28.326v-9.086a8.016 8.016 0 0 0-8.017-8.017 8.016 8.016 0 0 0-8.017 8.017v9.086h-8.017c-13.261 0-24.05 10.789-24.05 24.05v27.791c0 13.217 10.719 23.98 23.92 24.05l8.147.239v43.585h-24.05c-4.428 0-8.017 3.588-8.017 8.017s3.588 8.017 8.017 8.017h24.05v9.086a8.016 8.016 0 0 0 8.017 8.017 8.016 8.016 0 0 0 8.017-8.017v-9.086h12.292c13.261 0 24.05-10.789 24.05-24.05v-26.722c.001-13.216-10.718-23.978-23.919-24.049zm-36.236-1.066a9.227 9.227 0 0 0-.236-.003c-4.421 0-8.017-3.596-8.017-8.017V323.34c0-4.421 3.596-8.017 8.017-8.017h8.017v44.057l-7.781-.229zm44.123 51.839c0 4.421-3.596 8.017-8.017 8.017h-12.292v-43.114l12.056.355c.078.002.157.003.236.003 4.421 0 8.017 3.596 8.017 8.017v26.722z" fill="#eb6836"/><path d="M204.693 25.653H33.67a8.016 8.016 0 0 0-8.017 8.017v42.756a8.016 8.016 0 0 0 8.017 8.017h171.023a8.016 8.016 0 0 0 8.017-8.017V33.67a8.016 8.016 0 0 0-8.017-8.017z" fill="#f2f2f2"/><path d="M33.67 25.653a8.016 8.016 0 0 0-8.017 8.017v42.756a8.016 8.016 0 0 0 8.017 8.017h34.739l58.789-58.789H33.67zm171.023 0h-29.929l-58.789 58.789h88.718a8.016 8.016 0 0 0 8.017-8.017V33.67a8.016 8.016 0 0 0-8.017-8.017z" fill="#62c9cc"/><path d="M67.875 94.063H33.67a8.016 8.016 0 0 0-8.017 8.017v34.205a8.016 8.016 0 0 0 8.017 8.017h34.205a8.016 8.016 0 0 0 8.017-8.017V102.08a8.017 8.017 0 0 0-8.017-8.017zm67.874 0h-34.205a8.016 8.016 0 0 0-8.017 8.017v34.205a8.016 8.016 0 0 0 8.017 8.017h34.205a8.016 8.016 0 0 0 8.017-8.017V102.08a8.015 8.015 0 0 0-8.017-8.017zm-67.874 68.409H33.67a8.016 8.016 0 0 0-8.017 8.017v34.205a8.016 8.016 0 0 0 8.017 8.017h34.205a8.016 8.016 0 0 0 8.017-8.017v-34.205a8.017 8.017 0 0 0-8.017-8.017zm67.874 0h-34.205a8.016 8.016 0 0 0-8.017 8.017v34.205a8.016 8.016 0 0 0 8.017 8.017h34.205a8.016 8.016 0 0 0 8.017-8.017v-34.205a8.015 8.015 0 0 0-8.017-8.017zm-67.874 68.409H33.67a8.016 8.016 0 0 0-8.017 8.017v34.205a8.016 8.016 0 0 0 8.017 8.017h34.205a8.016 8.016 0 0 0 8.017-8.017v-34.205a8.017 8.017 0 0 0-8.017-8.017zm67.874 0h-34.205a8.016 8.016 0 0 0-8.017 8.017v34.205a8.016 8.016 0 0 0 8.017 8.017h34.205a8.016 8.016 0 0 0 8.017-8.017v-34.205a8.015 8.015 0 0 0-8.017-8.017zm68.41-136.818h-34.205a8.016 8.016 0 0 0-8.017 8.017v34.205a8.016 8.016 0 0 0 8.017 8.017h34.205a8.016 8.016 0 0 0 8.017-8.017V102.08a8.017 8.017 0 0 0-8.017-8.017z" fill="#ef9d3c"/><path d="M204.693 162.472h-34.205a8.016 8.016 0 0 0-8.017 8.017v102.614a8.016 8.016 0 0 0 8.017 8.017h34.205a8.016 8.016 0 0 0 8.017-8.017V170.489a8.015 8.015 0 0 0-8.017-8.017z" fill="#f7d04a"/><path d="M297.846 92.994a7.994 7.994 0 0 1-5.941-2.632l-15.51-17.102a8.016 8.016 0 0 1 .554-11.324c3.276-2.976 8.349-2.729 11.324.554l15.51 17.102a8.016 8.016 0 0 1-.554 11.324 7.985 7.985 0 0 1-5.383 2.078z" fill="#666"/><g fill="#62c9cc"><path d="M464.11 214.126L336.377 86.391a8.02 8.02 0 0 0-4.097-2.192l-30.233-6.046a8.03 8.03 0 0 0-7.241 2.192 8.021 8.021 0 0 0-2.192 7.241l6.046 30.233a8.02 8.02 0 0 0 2.192 4.097l127.735 127.735c5.116 5.116 12.417 7.67 19.607 6.89 6.428-.697 11.449-3.932 15.917-8.402 9.377-9.378 9.377-24.634-.001-34.013z"/><path d="M388.487 209.561l-87.636-87.636 35.523-35.523 87.636 87.636z"/></g><path d="M302.047 78.153c-5.513-1.096-10.535 3.916-9.433 9.433l6.046 30.233a8.02 8.02 0 0 0 2.192 4.097l35.525-35.525a8.02 8.02 0 0 0-4.097-2.192l-30.233-6.046z" fill="#f7d04a"/><path d="M464.11 214.126l-40.095-40.095-35.525 35.525 40.095 40.095c5.021 5.021 12.2 7.479 19.248 6.84 6.562-.595 11.719-3.795 16.276-8.351 9.379-9.379 9.379-24.635.001-34.014z" fill="#50a9a9"/><path d="M451.639 221.01a8.017 8.017 0 0 1-5.669-13.685l12.323-12.322-37.701-35.802a8.016 8.016 0 0 1-.293-11.333c3.051-3.211 8.125-3.342 11.333-.293l43.668 41.467a8.013 8.013 0 0 1 2.496 5.71 8.024 8.024 0 0 1-2.346 5.772l-18.14 18.14a8.015 8.015 0 0 1-5.671 2.346z" fill="#666"/><path d="M198.28 383.733h-53.445a8.016 8.016 0 0 1-8.017-8.017 8.016 8.016 0 0 1 8.017-8.017h53.445a8.016 8.016 0 0 1 8.017 8.017 8.017 8.017 0 0 1-8.017 8.017zm0 42.756h-53.445c-4.428 0-8.017-3.588-8.017-8.017s3.588-8.017 8.017-8.017h53.445c4.428 0 8.017 3.588 8.017 8.017s-3.589 8.017-8.017 8.017z" fill="gray"/></svg>