<svg xmlns="http://www.w3.org/2000/svg" viewBox="0 0 496 496"><path fill="#05365b" d="M0 41.678v236.8l35.2 22.4 107.2-168.8z"/><path fill="#008c61" d="M496 45.678v-4l-142.4 90.4 107.2 168.8 35.2-22.4z"/><g fill="#e29d81"><path d="M404 335.278c30.4-19.2 38.4-60.8 17.6-92.8l-25.6-40c-20.8-32-61.6-42.4-92-23.2l-91.2 57.6c-30.4 19.2-38.4 60.8-17.6 92.8l25.6 40c20.8 32 61.6 42.4 92 23.2l91.2-57.6z"/><path d="M392.8 342.478c11.2-7.2 14.4-22.4 7.2-33.6-7.2-11.2-22.4-14.4-33.6-7.2l-168 106.4c-11.2 7.2-14.4 22.4-7.2 33.6 7.2 11.2 22.4 14.4 33.6 7.2l168-106.4z"/></g><path d="M196 329.678l25.6 40c20.8 32 61.6 42.4 92 23.2l91.2-57.6c30.4-19.2 38.4-60.8 17.6-92.8l-25.6-40" fill="#d3856a"/><g fill="#e29d81"><path d="M288.8 303.278c11.2-7.2 14.4-22.4 7.2-33.6-7.2-11.2-22.4-14.4-33.6-7.2l-168 107.2c-11.2 7.2-14.4 22.4-7.2 33.6 7.2 11.2 22.4 14.4 33.6 7.2l168-107.2z"/><path d="M324 335.278c11.2-7.2 14.4-22.4 7.2-33.6-7.2-11.2-22.4-14.4-33.6-7.2l-168 107.2c-11.2 7.2-14.4 22.4-7.2 33.6 7.2 11.2 22.4 14.4 33.6 7.2l168-107.2zm-36-87.2c11.2-7.2 14.4-22.4 7.2-33.6-7.2-11.2-22.4-14.4-33.6-7.2l-168 107.2c-11.2 7.2-14.4 22.4-7.2 33.6 7.2 11.2 22.4 14.4 33.6 7.2l168-107.2z"/><path d="M321.6 171.278s-94.4 13.6-102.4 16c-7.2 2.4-29.6 56.8-4 63.2 26.4 6.4 68-27.2 68-27.2l38.4-52z"/></g><path fill="#fff" d="M344.667 157.14l24.981-15.885 92.73 145.834-24.981 15.884z"/><path fill="#dfe2e5" d="M369.6 141.678l-24.8 16 92.8 145.6"/><path fill="#006d49" d="M496 41.678l-142.4 90.4 107.2 168.8"/><path d="M401.6 368.878l-15.2-9.6c8.8.8 18.4-3.2 23.2-11.2 7.2-11.2 4-26.4-7.2-33.6l-112-71.2c8-16.8-8-52.8-13.6-55.2-7.2-2.4-93.6-14.4-101.6-16-27.2-8-58.4 4-75.2 30.4l-25.6 40c-20.8 32-12.8 73.6 17.6 92.8l7.2 4.8c.8.8 2.4 2.4 4 3.2l168 107.2c11.2 7.2 26.4 4 33.6-7.2 4-6.4 4.8-13.6 2.4-20l32 20.8c11.2 7.2 26.4 4 33.6-7.2 5.6-8 4.8-18.4 0-25.6l1.6.8c11.2 7.2 26.4 4 33.6-7.2 8.8-13.6 5.6-28.8-6.4-36z" fill="#f9bda0"/><path d="M279.2 440.878c-4.8-3.2-6.4-8.8-3.2-13.6l3.2-5.6c3.2-4.8 8.8-6.4 13.6-3.2 4.8 3.2 6.4 8.8 3.2 13.6l-3.2 5.6c-2.4 4.8-8.8 6.4-13.6 3.2zm104-39.2c-4.8-3.2-6.4-8.8-3.2-13.6l3.2-5.6c3.2-4.8 8.8-6.4 13.6-3.2 4.8 3.2 6.4 8.8 3.2 13.6l-3.2 5.6c-2.4 4.8-8.8 6.4-13.6 3.2zm-35.2 32c-4.8-3.2-6.4-8.8-3.2-13.6l3.2-5.6c3.2-4.8 8.8-6.4 13.6-3.2 4.8 3.2 6.4 8.8 3.2 13.6l-3.2 5.6c-3.2 4.8-8.8 6.4-13.6 3.2zm36-86.4c-4.8-3.2-6.4-8.8-3.2-13.6l3.2-5.6c3.2-4.8 8.8-6.4 13.6-3.2 4.8 3.2 6.4 8.8 3.2 13.6l-2.4 5.6c-3.2 4.8-9.6 5.6-14.4 3.2z" fill="#ffe4c7"/><path fill="#fff" d="M58.422 303.318l-24.98-15.88 92.708-145.826 24.98 15.88z"/><path fill="#dfe2e5" d="M126.4 141.678l24.8 16-92.8 145.6"/><path fill="#00263d" d="M0 41.678l142.4 90.4-107.2 168.8"/><path d="M56 195.278c-4.8 8-15.2 9.6-22.4 4.8-8-4.8-9.6-15.2-4.8-22.4 4.8-8 15.2-9.6 22.4-4.8 7.2 4.8 9.6 15.2 4.8 22.4z" fill="#ffc114"/><path d="M402.4 313.678l-112-71.2c8-16.8-8-52.8-13.6-55.2-3.2-1.6-25.6-4.8-48.8-8l-25.6 80 210.4 67.2c-1.6-4.8-4.8-9.6-10.4-12.8z" fill="#e8ab92"/><path d="M296 192.878c7.2 12 10.4 43.2.8 48.8l-80.8 17.6c-9.6 5.6-22.4 0-29.6-11.2-7.2-12-4.8-25.6 4.8-31.2l57.6-33.6c9.6-5.6 39.2-4 46.4 7.2l.8 2.4z" fill="#e29d81"/></svg>