<svg xmlns="http://www.w3.org/2000/svg" viewBox="0 0 513.809 513.809"><path d="M430.482 171.409c0-92.8-82.4-168-182.4-163.2-85.6 4-156.8 68.8-164 148.8-4 40.8 8.8 79.2 32 109.6 28 36.8 48 36 54.4 80.8l2.4 30.4h169.6l1.6-12.8c6.4-47.2 27.2-61.6 56-100 19.2-26.4 30.4-58.4 30.4-93.6z" fill="#fdbf5e"/><g fill="#fff"><path d="M256.882 266.609s40.8 52.8 68.8 4c0 0 39.2-8.8 29.6-45.6 0 0 29.6-24 8.8-54.4 0 0 32-65.6-28-92 0 0-40-64-79.2 11.2 0 0-34.4-73.6-80-11.2 0 0-60 18.4-27.2 92 0 0-24.8 32.8 7.2 53.6 0 0-8.8 40 31.2 43.2.8 0 16 55.2 68.8-.8zM178.48 377.81h156.8v80h-156.8z"/><path d="M301.682 457.809h-89.6v21.6c0 13.6 9.6 25.6 22.4 25.6h44.8c12 0 22.4-11.2 22.4-25.6v-21.6z"/></g><g fill="#193651"><path d="M247.282.209c-89.6 4-164 71.2-171.2 156.8-4 40.8 8 81.6 33.6 115.2 9.6 12.8 18.4 21.6 26.4 28.8 14.4 13.6 22.4 21.6 26.4 48l1.6 21.6h-10.4v16h16.8v24h-16.8v16h16.8v24h-16.8v16h50.4v13.6c0 18.4 13.6 33.6 30.4 33.6h44.8c16.8 0 30.4-15.2 30.4-33.6v-13.6h50.4v-16h-16.8v-24h16.8v-16h-16.8v-24h16.8v-16h-9.6l.8-3.2c4.8-34.4 17.6-49.6 36-73.6 5.6-6.4 12-14.4 18.4-23.2 21.6-28.8 32.8-63.2 32.8-98.4 0-98.4-86.4-176.8-191.2-172zm46.4 479.2c0 9.6-6.4 17.6-14.4 17.6h-44.8c-8 0-14.4-8-14.4-17.6v-13.6h73.6v13.6zm33.6-29.6h-140.8v-24h140.8v24zm0-40h-140.8v-24h140.8v24zm65.6-149.6c-6.4 8.8-12 16-17.6 23.2-20 24.8-34.4 42.4-40 80.8l-.8 5.6h-155.2l-1.6-23.2c-4.8-32-16-43.2-31.2-57.6-7.2-7.2-15.2-14.4-24.8-26.4-22.4-29.6-33.6-67.2-30.4-104 7.2-77.6 75.2-138.4 156.8-142.4 95.2-4 174.4 67.2 174.4 155.2 0 32-10.4 63.2-29.6 88.8z"/><path d="M339.282 75.409c-8.8-16-23.2-26.4-40-26.4-19.2 0-35.2 13.6-42.4 32.8-7.2-19.2-24-32.8-42.4-32.8-16 0-31.2 10.4-40 26.4-22.4 6.4-38.4 30.4-38.4 59.2 0 12.8 3.2 25.6 9.6 35.2-4.8 6.4-7.2 15.2-7.2 24 0 12.8 5.6 24.8 15.2 32-.8 2.4-.8 5.6-.8 8 0 20 16.8 35.2 32.8 37.6 4.8 14.4 16 24.8 29.6 24.8 12.8 0 32.8-9.6 41.6-24 8.8 14.4 29.6 24 41.6 24 13.6 0 24.8-10.4 29.6-24.8h.8c17.6 0 32-16.8 32-37.6 0-2.4 0-5.6-.8-8 9.6-6.4 15.2-18.4 15.2-32 0-8.8-2.4-17.6-7.2-24 6.4-9.6 9.6-22.4 9.6-35.2 0-28.8-16-52.8-38.4-59.2zm-86.4 183.2c0 15.2-23.2 29.6-37.6 29.6-10.4 0-20-8.8-22.4-21.6l-.8-3.2h-3.2c-12.8 0-28-12.8-28-29.6 0-3.2 0-5.6.8-8.8l.8-3.2-2.4-1.6c-8-4.8-13.6-15.2-13.6-26.4 0-6.4 1.6-12 4.8-16.8 9.6 11.2 22.4 18.4 36.8 18.4 2.4 0 4-1.6 4-4s-1.6-4-4-4c-24 0-43.2-24-43.2-52.8 0-25.6 13.6-47.2 33.6-52l1.6-.8.8-1.6c7.2-14.4 20-23.2 33.6-23.2 21.6 0 38.4 21.6 38.4 47.2v154.4zm73.6-63.2c14.4 0 27.2-7.2 36.8-18.4 3.2 4.8 4.8 11.2 4.8 16.8 0 11.2-5.6 21.6-13.6 26.4l-2.4 1.6.8 3.2c.8 3.2.8 5.6.8 8.8 0 16-10.4 29.6-24 29.6-12.8 0-24-12.8-24-29.6 0-2.4-1.6-4-4-4s-4 1.6-4 4c0 16.8 9.6 31.2 22.4 36-4 11.2-12 18.4-21.6 18.4-14.4 0-37.6-14.4-37.6-29.6v-154.4c0-26.4 17.6-47.2 38.4-47.2 13.6 0 26.4 8.8 33.6 23.2l.8 1.6 1.6.8c20 4.8 33.6 26.4 33.6 52 0 28.8-19.2 52.8-43.2 52.8-2.4 0-4 1.6-4 4 .8 2.4 2.4 4 4.8 4z"/><path d="M349.682 137.809c2.4 0 4.8 0 7.2-.8 2.4-.8 3.2-2.4 3.2-4.8-.8-2.4-2.4-3.2-4.8-3.2-14.4 3.2-28.8-5.6-32-19.2-.8-2.4-2.4-3.2-4.8-3.2-2.4.8-3.2 2.4-3.2 4.8 4 16 18.4 26.4 34.4 26.4zm-148-26.4c.8-2.4-.8-4-3.2-4.8s-4 .8-4.8 3.2c-3.2 13.6-17.6 22.4-32 19.2-2.4-.8-4 .8-4.8 3.2s.8 4 3.2 4.8 4.8.8 7.2.8c16 0 30.4-10.4 34.4-26.4zm-12 111.2c-2.4-.8-4 .8-4.8 3.2s.8 4 3.2 4.8c8 1.6 15.2 6.4 20 13.6 4 6.4 5.6 13.6 4 21.6-.8 2.4.8 4 3.2 4.8h.8c1.6 0 3.2-1.6 4-3.2 2.4-9.6.8-19.2-4.8-27.2-6.4-9.6-15.2-15.2-25.6-17.6zM206.48 333.81h16v16h-16zm42.4 0h16v16h-16zm42.4 0h16v16h-16z"/></g></svg>