<svg xmlns="http://www.w3.org/2000/svg" viewBox="0 0 318.532 318.532"><path d="M159.266 194.486c-70.803 0-129.92 49.961-144.076 116.547h288.157c-14.159-66.586-73.273-116.547-144.081-116.547z" fill="#fee050"/><path d="M280.044 139.336a8.301 8.301 0 0 1-8.301-8.301c0-62.021-50.457-112.479-112.478-112.479-62.019 0-112.476 50.457-112.476 112.479a8.301 8.301 0 0 1-16.602 0c0-71.176 57.904-129.08 129.077-129.08 71.174 0 129.08 57.904 129.08 129.08a8.3 8.3 0 0 1-8.3 8.301z" fill="#333e48"/><circle cx="275.301" cy="131.035" r="33.082" fill="#1e252b"/><circle cx="43.23" cy="131.035" r="33.082" fill="#1e252b"/><path d="M275.301 131.035C275.301 66.949 223.352 15 159.266 15 95.185 15 43.232 66.949 43.232 131.035c0 64.084 51.953 116.033 116.033 116.033 64.087 0 116.036-51.949 116.036-116.033z" fill="#fee050"/><path d="M223.391 131.035c0 35.412-28.707 64.123-64.125 64.123-35.412 0-64.123-28.711-64.123-64.123h128.248z" fill="#af8400"/><path d="M223.391 123.535H95.143a7.5 7.5 0 0 0-7.5 7.5c0 39.493 32.13 71.623 71.623 71.623 39.494 0 71.625-32.13 71.625-71.623a7.5 7.5 0 0 0-7.5-7.5zm-64.125 64.123c-28.68 0-52.448-21.433-56.128-49.123h112.258c-3.681 27.691-27.449 49.123-56.13 49.123zm89.896 28.103a123.898 123.898 0 0 0 26.759-44.161c22.091-.334 39.962-18.396 39.962-40.564 0-19.316-13.569-35.512-31.673-39.585C267.096 37.366 216.406 0 159.266 0 102.15 0 51.441 37.373 34.327 91.449c-18.106 4.07-31.678 20.269-31.678 39.586 0 16.513 9.92 30.743 24.109 37.072 3.952 13.824 14.644 24.828 28.286 29.203a123.463 123.463 0 0 0 14.33 18.45c-31.303 22.406-53.519 56.082-61.519 93.713a7.497 7.497 0 0 0 7.336 9.059h288.157a7.499 7.499 0 0 0 7.336-9.059c-8.003-37.632-30.22-71.307-61.522-93.712zm31.073-109.825c11.752 2.307 20.647 12.682 20.647 25.1 0 12.429-8.913 22.811-20.682 25.104a123.04 123.04 0 0 0 2.6-25.104 123.524 123.524 0 0 0-2.565-25.1zM35.732 131.035c0 1.485.036 2.967.089 4.446a7.456 7.456 0 0 0-3.227-.737 7.5 7.5 0 0 0-7.5 7.5v6.813c-4.6-4.627-7.447-10.998-7.447-18.021 0-12.419 8.896-22.795 20.649-25.1a123.735 123.735 0 0 0-2.564 25.099zM24.778 303.533c9.414-33.01 31.049-61.927 60.391-80.311a7.499 7.499 0 0 0 1.066-11.903 108.109 108.109 0 0 1-11.272-11.957h15.464c2.294 3.212 6.043 5.313 10.291 5.313 6.985 0 12.649-5.662 12.649-12.648 0-6.984-5.664-12.646-12.649-12.646-4.1 0-7.733 1.959-10.044 4.982H68.169c-1.195 0-2.37-.084-3.525-.229-9.013-16.075-13.912-34.354-13.912-53.099C50.732 71.188 99.42 22.5 159.266 22.5c59.847 0 108.535 48.688 108.535 108.535 0 30.487-12.94 59.751-35.501 80.285a7.502 7.502 0 0 0 1.066 11.903c29.342 18.383 50.977 47.3 60.393 80.311H24.778v-.001zM232.93 120.566c7.533 0 13.643-6.111 13.643-13.646s-6.109-13.643-13.643-13.643c-7.536 0-13.646 6.107-13.646 13.643s6.11 13.646 13.646 13.646zM99.25 106.92c0-7.535-6.107-13.643-13.644-13.643-7.538 0-13.645 6.107-13.645 13.643s6.107 13.646 13.645 13.646c7.537 0 13.644-6.111 13.644-13.646z" fill="#071c2c"/></svg>